<svg xmlns="http://www.w3.org/2000/svg" xmlns:xlink="http://www.w3.org/1999/xlink" fill="none" version="1.1" width="34" height="34" viewBox="0 0 34 34"><g><g></g><g><g><ellipse cx="17.5" cy="7.5" rx="2" ry="2" fill-opacity="0" stroke-opacity="1" stroke="#000000" fill="none" stroke-width="1"/></g><g><path d="M14 14.5C14 13.395430500338414 14.895430500338414 12.5 16 12.5L26 12.5C26 12.5 26 12.5 26 12.5L26 29.16666603088379C26 29.16666603088379 26 29.16666603088379 26 29.16666603088379L14 29.16666603088379C14 29.16666603088379 14 29.16666603088379 14 29.16666603088379Z" fill="#1FA1FF" fill-opacity="1"/></g><g><rect x="8.5" y="7.166666507720947" width="18" height="22.333332061767578" rx="1.5" fill-opacity="0" stroke-opacity="1" stroke="#000000" fill="none" stroke-width="1"/></g><g><line x1="12" y1="12.5" x2="23" y2="12.5" fill-opacity="0" stroke-opacity="1" stroke="#000000" fill="none" stroke-width="1"/></g><g><line x1="12" y1="15.5" x2="16" y2="15.5" fill-opacity="0" stroke-opacity="1" stroke="#000000" fill="none" stroke-width="1"/></g><g><line x1="12" y1="18.5" x2="19" y2="18.5" fill-opacity="0" stroke-opacity="1" stroke="#000000" fill="none" stroke-width="1"/></g><g><line x1="12" y1="21.5" x2="19" y2="21.5" fill-opacity="0" stroke-opacity="1" stroke="#000000" fill="none" stroke-width="1"/></g><g><line x1="12" y1="24.5" x2="21" y2="24.5" fill-opacity="0" stroke-opacity="1" stroke="#000000" fill="none" stroke-width="1"/></g></g></g></svg>